<svg width="20" height="21" viewBox="0 0 20 21" fill="none" xmlns="http://www.w3.org/2000/svg">
<path d="M1.93201 13.9489C1.93201 15.306 3.65715 15.6577 5.70037 15.6577C7.73274 15.6577 9.46872 15.3185 9.46872 13.9609C9.46872 12.6039 7.74405 12.2521 5.70037 12.2521C3.66799 12.2521 1.93201 12.5914 1.93201 13.9489Z" stroke="#828792" stroke-width="1.58764"/>
<path d="M5.70022 9.901C7.00509 9.901 8.05059 8.85544 8.05059 7.55149C8.05059 6.24754 7.00509 5.20242 5.70022 5.20242C4.39579 5.20242 3.34985 6.24754 3.34985 7.55149C3.34985 8.85544 4.39579 9.901 5.70022 9.901" stroke="#828792" stroke-width="1.58764"/>
<path d="M12.1964 5.60996C11.4954 5.60996 10.9271 6.17823 10.9271 6.87924C10.9271 7.58024 11.4954 8.14852 12.1964 8.14852H17.5877C18.2887 8.14852 18.857 7.58024 18.857 6.87924C18.857 6.17823 18.2887 5.60996 17.5877 5.60996H12.1964Z" fill="#828792" stroke="white" stroke-width="1.19073" stroke-linecap="round"/>
<path d="M12.1964 8.97955C11.4954 8.97955 10.9271 9.54783 10.9271 10.2488C10.9271 10.9498 11.4954 11.5181 12.1964 11.5181H17.5877C18.2887 11.5181 18.857 10.9498 18.857 10.2488C18.857 9.54783 18.2887 8.97955 17.5877 8.97955H12.1964Z" fill="#828792" stroke="white" stroke-width="1.19073" stroke-linecap="round"/>
<path d="M12.1964 12.3491C11.4954 12.3491 10.9271 12.9174 10.9271 13.6184C10.9271 14.3194 11.4954 14.8877 12.1964 14.8877H17.5877C18.2887 14.8877 18.857 14.3194 18.857 13.6184C18.857 12.9174 18.2887 12.3491 17.5877 12.3491H12.1964Z" fill="#828792" stroke="white" stroke-width="1.19073" stroke-linecap="round"/>
</svg>
