<svg xmlns="http://www.w3.org/2000/svg" width="20" height="16" viewBox="0 0 20 16" fill="none">
<path d="M8.68048 1.84853C9.08517 1.44766 9.10858 0.772744 8.73276 0.341069C8.35694 -0.0906062 7.72421 -0.115575 7.31951 0.285299L0.319519 7.21921C0.115759 7.42104 -1.14692e-05 7.70426 8.53106e-10 8.00086C1.14709e-05 8.29747 0.115805 8.58068 0.319578 8.7825L7.31958 15.7153C7.7243 16.1161 8.35703 16.0911 8.73282 15.6594C9.1086 15.2276 9.08514 14.5527 8.68042 14.1519L3.4788 9.00025L18.9444 9.00024C19.5274 9.00024 20 8.55253 20 8.00024C20 7.44796 19.5274 7.00024 18.9444 7.00024L3.47966 7.00025L8.68048 1.84853Z" fill="#828792"/>
</svg>