<svg xmlns="http://www.w3.org/2000/svg" width="36" height="31" viewBox="0 0 36 31">
    <g fill="#31A18A" fill-rule="nonzero">
        <path d="M35.298 13.773h-4.722v-1.044h3.673c.29 0 .524-.233.524-.521l.001-9.74a.52.52 0 0 0-.525-.521H21.655a.523.523 0 0 0-.525.522v9.739c0 .288.235.521.525.521h3.673v1.044h-11.09V10.12a1.92 1.92 0 0 0-1.924-1.913H8.816c-.88 0-1.622.589-1.851 1.39H3.743V5.948a.523.523 0 0 0-.525-.522.523.523 0 0 0-.524.522v3.652h-.525c-.868 0-1.574.702-1.574 1.565S1.3 12.73 2.169 12.73h1.05c.29 0 .524-.233.524-.521v-1.566h3.149v3.13H.525a.523.523 0 0 0-.525.522v15.791c0 .289.235.522.525.522.29 0 .524-.233.524-.522V22.12h3.814v8.12c0 .287.234.52.524.52.29 0 .525-.233.525-.52v-8.12h2.03v5.894l-.925 1.838a.52.52 0 0 0 .47.755.526.526 0 0 0 .469-.288l.98-1.948a.521.521 0 0 0 .055-.233V22.12h3.148v6.018c0 .08.02.16.056.233l.98 1.948a.525.525 0 0 0 .938-.467l-.924-1.838V22.12h2.029v7.965c0 .289.234.522.524.522.29 0 .525-.233.525-.522V22.12h3.813v7.965c0 .289.235.522.525.522h14.693c.29 0 .525-.233.525-.522v-15.79a.523.523 0 0 0-.525-.522zM2.694 11.686h-.525a.524.524 0 0 1-.525-.522c0-.288.236-.522.525-.522h.525v1.044zm31.03-8.696V9.6H22.18V2.99h11.544zM22.18 10.642h11.544v1.044H22.18v-1.044zm4.198 2.087h3.148v1.044h-3.148v-1.044zM7.94 10.121c0-.48.392-.87.875-.87h3.498c.482 0 .875.39.875.87v3.652H7.94V10.12zm26.832 4.695v1.044H1.05v-1.044h33.724zM1.05 21.076v-4.173H20.08v4.174H1.05zm20.08 8.488v-12.66h13.644v12.66H21.13z"/>
        <path d="M10.643 7.398a3.57 3.57 0 0 0 2.105-.686c.387.429.938.686 1.53.686 1.144 0 2.076-.948 2.076-2.114 0-1.165-.932-2.113-2.077-2.113h-.037C13.987 1.38 12.47 0 10.643 0a3.572 3.572 0 0 0-2.222.775A3.717 3.717 0 0 0 7.009 3.7c0 2.04 1.63 3.7 3.634 3.7zm4.673-2.114a1.05 1.05 0 0 1-1.039 1.057c-.302 0-.584-.134-.778-.358a3.714 3.714 0 0 0 .74-1.755h.038a1.05 1.05 0 0 1 1.039 1.056zM13.18 3.141a5.612 5.612 0 0 1-3.62-1.842 2.54 2.54 0 0 1 1.083-.242c1.243 0 2.285.894 2.537 2.084zM8.72 1.928a6.636 6.636 0 0 0 4.472 2.276c-.232 1.216-1.286 2.137-2.548 2.137-1.432 0-2.596-1.185-2.596-2.642 0-.68.255-1.302.672-1.771z"/>
    </g>
</svg>
