<svg id="Capa_1" enable-background="new 0 0 512.016 512.016" height="512" viewBox="0 0 512.016 512.016" width="512" xmlns="http://www.w3.org/2000/svg"><g><path d="m342.081 128.829c-8.18-14.68-23.71-23.8-40.52-23.8h-52.356l-44.054-88.108c-2.541-5.082-7.735-8.292-13.417-8.292h-48.2c-8.284 0-15 6.716-15 15v81.4h-19.153c-19.19 0-36.14 11.54-43.17 29.39l-13.73 34.88h312.16z"/><path d="m502.241 402.589-27.4-12.54c-11.98-6.79-26.64-6.63-38.49.48l-16.14 9.68c-2.6 1.56-5.83 1.56-8.42 0-1.499-.903-8.7 9.315 97.04-126.36 7.652-9.826.653-24.22-11.83-24.22h-87.591l-28.049-50.33h-78.36v50.33h-30v-50.33h-114v50.33h-30v-50.33h-88.33l-19.819 50.33c-6.123 0-12.744-.846-17.871 6.02-2.83 3.79-3.71 8.7-2.36 13.23l35.92 121.46-26.78 12.25c-7.53 3.45-10.85 12.35-7.4 19.88s12.35 10.85 19.88 7.4l28.07-12.84c1.418-.64 5.247-3.583 9.9-.78l16.14 9.68c12.12 7.28 27.18 7.28 39.3 0l16.14-9.68c2.6-1.56 5.83-1.56 8.42 0l16.14 9.68c12.12 7.28 27.18 7.28 39.3 0l16.14-9.68c2.6-1.56 5.83-1.56 8.42 0l16.14 9.68c12.12 7.28 27.18 7.28 39.3 0l16.14-9.68c2.6-1.56 5.83-1.56 8.42 0l16.14 9.68c12.12 7.28 27.18 7.28 39.3 0l16.14-9.68c2.6-1.56 5.83-1.56 8.42 0 15.638 9.379 22.709 15.14 35.79 15.14 12.981 0 19.64-5.454 35.79-15.14 4.615-2.769 8.38.095 9.9.78l28.07 12.84c7.53 3.45 16.43.13 19.88-7.4s.13-16.43-7.4-19.88zm-390.24-43.16c-12.68 0-23-10.32-23-23s10.32-23 23-23 23 10.32 23 23-10.32 23-23 23zm80 0c-12.68 0-23-10.32-23-23s10.32-23 23-23 23 10.32 23 23-10.32 23-23 23zm80 0c-12.68 0-23-10.32-23-23s10.32-23 23-23 23 10.32 23 23-10.32 23-23 23zm80 0c-12.68 0-23-10.32-23-23s10.32-23 23-23 23 10.32 23 23-10.32 23-23 23z"/><path d="m502.241 474.589-27.402-12.537c-11.976-6.794-26.636-6.638-38.486.473l-16.138 9.683c-2.6 1.56-5.829 1.559-8.427 0l-16.14-9.684c-12.119-7.271-27.177-7.271-39.296 0l-16.138 9.683c-2.6 1.56-5.829 1.559-8.427 0l-16.14-9.684c-12.119-7.271-27.177-7.271-39.296 0l-16.138 9.683c-2.6 1.56-5.829 1.559-8.427 0l-16.14-9.684c-12.119-7.27-27.175-7.271-39.296 0l-16.138 9.683c-2.6 1.56-5.829 1.559-8.427 0l-16.14-9.684c-12.119-7.27-27.176-7.271-39.296 0l-16.138 9.683c-2.6 1.56-5.829 1.559-8.427 0l-16.14-9.684c-11.852-7.11-26.512-7.267-38.485-.473l-27.399 12.542c-7.533 3.446-10.846 12.347-7.399 19.881 3.446 7.533 12.347 10.846 19.881 7.399l28.069-12.842c7.635-3.49 5.128-3.643 26.043 8.906 12.12 7.271 27.177 7.271 39.296 0l16.138-9.683c2.6-1.56 5.829-1.559 8.427 0l16.14 9.684c12.12 7.271 27.176 7.271 39.296 0l16.138-9.683c2.6-1.56 5.829-1.559 8.427 0l16.14 9.684c12.12 7.271 27.178 7.271 39.296 0l16.138-9.683c2.6-1.56 5.829-1.559 8.427 0l16.14 9.684c12.119 7.271 27.177 7.271 39.296 0l16.138-9.683c2.6-1.56 5.829-1.559 8.427 0 15.813 9.488 22.726 15.137 35.787 15.137 12.993-.001 19.588-5.417 35.786-15.137 4.52-2.712 8.156-.021 9.904.777l28.069 12.842c7.532 3.447 16.434.134 19.881-7.399 3.443-7.537.129-16.438-7.404-19.884z"/></g></svg>